<svg preserveAspectRatio="none" width="100%" height="100%" overflow="visible" style="display: block;" viewBox="0 0 1360.69 262.803" fill="none" xmlns="http://www.w3.org/2000/svg">
<g id="vencedoras (Stroke)" opacity="0.8">
<path id="Stroke" d="M1276.73 198.38V181.635H1240.45V195.592L1240.51 199.243C1241.07 217.245 1245.82 231.264 1254.76 241.294C1263.7 251.105 1276.62 256.319 1293.53 256.932L1296.97 256.988C1315.81 256.988 1330.11 251.641 1339.88 240.942C1349.88 230.244 1354.88 214.894 1354.88 194.893C1354.88 180.503 1352.22 167.851 1346.91 156.936L1345.81 154.772C1340.14 144.089 1330.07 132.285 1315.62 119.353L1312.67 116.752C1300.11 105.821 1291.39 96.5136 1286.5 88.8387C1282.14 81.6442 1279.83 73.9398 1279.55 65.7234L1279.53 64.0711C1279.53 48.4894 1285.92 40.7006 1298.71 40.7002L1299.87 40.723C1305.58 40.9542 1309.96 42.9216 1313.01 46.6281C1316.27 50.3493 1317.9 56.3969 1317.9 64.7695V77.3293H1354.18V67.211C1354.18 47.4426 1349.41 32.3262 1339.88 21.8605C1331.16 11.8307 1318.45 6.50357 1301.75 5.87678L1298.37 5.81432C1279.76 5.81432 1265.57 11.1621 1255.8 21.8605C1246.03 32.3261 1241.15 47.2099 1241.15 66.5126L1241.19 69.1586C1241.56 82.2948 1244.68 94.2071 1250.57 104.891C1256.85 116.054 1267.9 128.611 1283.71 142.564C1296.27 153.495 1304.88 162.917 1309.53 170.824C1314.18 178.499 1316.51 187.454 1316.51 197.687L1316.42 200.804C1316.04 207.823 1314.32 213.062 1311.27 216.521C1308.02 220.242 1303.13 222.102 1296.62 222.102V216.288C1302.02 216.288 1305.07 214.783 1306.89 212.694L1306.91 212.677C1309.03 210.28 1310.69 205.713 1310.69 197.687C1310.69 188.364 1308.58 180.478 1304.55 173.833L1304.51 173.771C1300.86 167.563 1294.25 159.951 1284.34 150.911L1279.89 146.948L1279.87 146.925C1264.84 133.664 1253.7 121.354 1246.82 109.995L1245.5 107.741L1245.48 107.696C1238.68 95.3638 1235.34 81.5899 1235.34 66.5126C1235.34 46.2597 1240.47 29.763 1251.55 17.8915C1262.71 5.69679 1278.64 0 1298.37 0C1317.83 0.000309389 1333.46 5.69258 1344.18 17.9426C1355.01 29.8395 1359.99 46.569 1359.99 67.211V83.1436H1312.08V64.7695C1312.08 57.8879 1310.88 53.7284 1309.32 51.3636L1308.64 50.4551L1308.58 50.3927L1308.53 50.3245C1306.62 48.0126 1303.68 46.5146 1298.71 46.5146C1293.55 46.5147 1290.62 48.0274 1288.81 50.228C1286.83 52.6488 1285.34 56.9282 1285.34 64.0711L1285.36 65.519C1285.6 72.6893 1287.6 79.3952 1291.41 85.7215C1295.84 92.6848 1304.06 101.55 1316.48 112.363C1331.75 125.636 1342.94 138.088 1349.66 149.73L1350.94 152.052C1357.51 164.433 1360.69 178.774 1360.69 194.893C1360.69 215.794 1355.46 232.746 1344.16 244.86L1344.17 244.866C1332.99 257.106 1316.92 262.803 1296.97 262.803C1277.88 262.803 1262.41 257.574 1251.5 246.314L1250.46 245.206L1250.41 245.161C1239.62 233.052 1234.64 216.243 1234.64 195.592V175.821H1282.55V198.38C1282.55 205.616 1284.09 209.963 1286.16 212.438C1288.07 214.717 1291.19 216.288 1296.62 216.288V222.102L1295.4 222.08C1282.95 221.601 1276.73 213.7 1276.73 198.38Z" fill="url(#paint0_linear_0_31)"/>
<path id="Stroke_2" d="M1194.66 3.48649L1236.32 259.317H1186.08L1179.19 211.524H1145.55L1139.3 254.343L1138.58 259.317H1091.13L1132.79 3.48649H1194.66ZM1137.73 9.30081L1097.96 253.502H1133.55L1140.53 205.71H1184.13V205.012L1191.11 253.502H1229.48L1189.72 9.30081H1137.73ZM1162.51 51.8634L1179.6 172.567H1145.06L1161.81 51.8634H1162.51ZM1151.74 166.753H1172.9L1162.21 91.2521L1151.74 166.753Z" fill="url(#paint1_linear_0_31)"/>
<path id="Stroke_3" d="M1037.27 178.847C1037.27 168.634 1035.61 162.744 1033.48 159.775L1033.05 159.218L1033 159.15L1032.94 159.076C1031.18 156.846 1027.58 154.914 1020.48 154.682L1019.01 154.659H1011.57V259.317H961.566V3.48649H1024.25V9.30081H967.38V253.502H1005.75V148.844H1019.01C1027.85 148.844 1034.01 151.054 1037.5 155.471C1041.22 159.89 1043.09 167.684 1043.09 178.847V223.499L1043.13 229.779C1043.21 235.536 1043.43 239.723 1043.78 242.339C1044.13 244.955 1044.74 247.701 1045.61 250.578L1046.57 253.502H1085.64C1083.78 249.316 1082.62 245.129 1082.16 240.942C1081.81 237.628 1081.59 233.595 1081.5 228.842L1081.46 223.851V180.937C1081.46 166.519 1079.48 155.008 1075.52 146.403C1071.8 137.798 1065.29 132.097 1055.99 129.306V128.608C1072.21 122.074 1080.58 106.813 1081.08 82.8202L1081.11 80.4694V65.468C1081.11 46.3972 1076.57 32.3278 1067.5 23.2574C1059 14.5364 1045.8 9.90308 1027.89 9.35759L1024.25 9.30081V3.48649C1044.77 3.4867 1061.05 8.30326 1071.67 19.1976H1071.66C1082.22 29.7909 1086.92 45.6315 1086.92 65.468V80.4694L1086.9 82.9337C1086.64 95.1388 1084.44 105.66 1079.98 114.208C1076.96 120.007 1072.94 124.781 1067.98 128.5C1073.61 132.213 1077.93 137.383 1080.8 143.973C1085.24 153.631 1087.27 166.077 1087.27 180.937V223.851L1087.31 228.746C1087.4 233.362 1087.61 237.205 1087.93 240.301C1088.28 243.401 1089.08 246.551 1090.37 249.76L1090.96 251.14L1094.59 259.317H1042.46L1041.09 255.438C1039.58 251.176 1038.54 247.059 1038.01 243.106C1037.49 239.187 1037.27 232.548 1037.27 223.499V178.847ZM1036.92 69.3064C1036.92 60.9302 1035.33 56.1996 1033.36 53.811L1033.3 53.7315L1033.23 53.652C1031.86 51.8639 1029.51 50.4096 1025.18 50.0749L1023.2 50.001H1011.57V108.144H1019.71V113.959H1005.75V44.1867H1023.2C1029.94 44.1867 1034.83 46.1619 1037.85 50.1146C1041.11 54.0683 1042.73 60.4686 1042.73 69.3064V88.1405C1042.73 97.4434 1040.76 104.077 1036.81 108.031C1033.08 111.984 1027.38 113.959 1019.71 113.959V108.144C1026.46 108.144 1030.34 106.415 1032.57 104.045L1032.63 103.977L1032.69 103.914C1035.02 101.583 1036.92 96.8667 1036.92 88.1405V69.3064Z" fill="url(#paint2_linear_0_31)"/>
<path id="Stroke_4" d="M941.426 67.211C941.426 48.8948 937.032 34.4636 928.241 23.9159L926.43 21.8605C917.055 11.8308 903.793 6.50369 886.65 5.87678L883.169 5.81432C864.331 5.81432 849.909 11.1621 839.908 21.8605L838.097 23.9159C829.306 34.4636 824.912 48.8948 824.912 67.211V195.592L824.969 199.203C825.555 216.999 830.534 230.913 839.908 240.942C849.909 251.641 864.331 256.988 883.169 256.988C900.83 256.988 914.606 252.287 924.5 242.884L926.43 240.942C935.805 230.913 940.783 216.999 941.369 199.203L941.426 195.592V67.211ZM897.239 64.7695C897.239 57.4015 895.694 52.9572 893.6 50.4211C891.68 48.0978 888.577 46.5146 883.169 46.5146C877.761 46.5146 874.658 48.0978 872.739 50.4211C870.644 52.9572 869.099 57.4015 869.099 64.7695V198.033L869.167 200.662C869.491 206.483 870.906 210.163 872.739 212.382C874.658 214.705 877.761 216.288 883.169 216.288V222.102C870.74 222.102 864.14 215.052 863.364 200.946L863.285 198.033V64.7695C863.285 48.722 869.912 40.7002 883.169 40.7002L884.39 40.723C896.833 41.2078 903.054 49.2224 903.054 64.7695V198.033C903.054 214.081 896.426 222.102 883.169 222.102V216.288C888.577 216.288 891.68 214.705 893.6 212.382C895.694 209.846 897.239 205.401 897.239 198.033V64.7695ZM947.24 195.592L947.183 199.39C946.564 218.168 941.275 233.573 930.677 244.911C919.284 257.1 903.13 262.803 883.169 262.803C863.208 262.803 847.055 257.1 835.661 244.911C824.357 232.817 819.098 216.097 819.098 195.592V67.211C819.098 46.7056 824.357 29.9854 835.661 17.8915C847.055 5.70278 863.208 1.98021e-07 883.169 0C902.507 0 918.268 5.35082 929.593 16.7673L930.677 17.8915C941.981 29.9854 947.24 46.7056 947.24 67.211V195.592Z" fill="url(#paint3_linear_0_31)"/>
<path id="Stroke_5" d="M680.162 3.48649H744.585V9.30081H685.976V253.502H744.585L748.105 253.44C764.27 252.88 776.784 248.405 785.649 240.011L787.494 238.154C796.433 228.561 801.181 214.775 801.74 196.801L801.797 193.15V69.6528C801.797 49.8844 797.029 34.8816 787.494 24.6486C778.555 15.0559 765.425 9.96296 748.105 9.36326L744.585 9.30081V3.48649C764.661 3.48653 780.756 8.89176 791.747 20.6853C802.635 32.3696 807.611 49.0217 807.611 69.6528V193.15L807.555 196.972C806.968 215.843 801.954 231.164 791.747 242.118C780.756 253.911 764.661 259.317 744.585 259.317H680.162V3.48649ZM757.61 67.9096C757.61 60.1207 755.947 55.8754 753.948 53.7429L753.88 53.6747L753.812 53.5953C752.177 51.7287 749.699 50.378 745.698 50.0692L743.887 50.001H730.163V212.802H743.887V218.616H724.348V44.1867H743.887C750.166 44.1867 754.934 46.0474 758.19 49.7682C761.678 53.4894 763.425 59.537 763.425 67.9096V194.893L763.34 197.926C762.958 204.742 761.242 209.779 758.19 213.035C754.934 216.756 750.166 218.616 743.887 218.616V212.802C748.973 212.802 751.944 211.341 753.812 209.208L753.88 209.128L753.948 209.06C755.947 206.928 757.61 202.682 757.61 194.893V67.9096Z" fill="url(#paint4_linear_0_31)"/>
<path id="Stroke_6" d="M559.242 9.30081V253.502H663.9V218.616H597.614V143.609H650.295V108.723H597.614V44.1867H663.9V9.30081H559.242ZM669.714 50.001H603.429V102.909H656.11V149.424H603.429V212.802H669.714V259.317H553.428V3.48649H669.714V50.001Z" fill="url(#paint5_linear_0_31)"/>
<path id="Stroke_7" d="M494.189 63.3727C494.189 56.4959 492.711 52.4195 490.765 50.1201C488.977 48.0081 486.035 46.515 480.817 46.5146C475.597 46.5146 472.652 48.0076 470.863 50.1201C468.918 52.4195 467.44 56.4959 467.44 63.3727V199.776C467.44 206.52 468.911 210.494 470.835 212.734C472.615 214.804 475.568 216.288 480.817 216.288V222.102L479.636 222.085C467.63 221.636 461.625 214.197 461.625 199.776V63.3727C461.626 48.2562 468.026 40.7002 480.817 40.7002L481.992 40.7173C493.998 41.1739 500.003 48.7275 500.003 63.3727V91.6323H536.286V65.8142C536.286 46.744 531.399 31.9739 521.631 21.5084C512.692 11.6978 499.868 6.48444 483.162 5.8711L479.767 5.81432C461.395 5.81458 447.324 11.0437 437.556 21.5084C428.021 31.9739 423.253 46.744 423.253 65.8142V196.988L423.31 200.515C423.869 217.888 428.617 231.483 437.556 241.294C447.324 251.759 461.395 256.988 479.767 256.988C496.992 256.988 510.334 252.39 519.791 243.191L521.631 241.294C530.788 231.483 535.651 217.888 536.223 200.515L536.286 196.988V162.449H500.003V199.776L499.929 202.479C499.181 215.562 492.808 222.102 480.817 222.102V216.288C486.065 216.288 489.014 214.804 490.793 212.734C492.718 210.494 494.189 206.52 494.189 199.776V156.635H542.1V196.988L542.038 200.702C541.433 219.03 536.268 234.087 525.923 245.201L525.929 245.206C514.987 257.216 499.26 262.803 479.767 262.803C460.266 262.802 444.462 257.213 433.303 245.258L433.258 245.206C422.451 233.345 417.439 216.997 417.439 196.988V65.8142C417.439 45.8062 422.451 29.4578 433.258 17.5963L433.303 17.5452C444.462 5.58931 460.266 0.000261051 479.767 0C499.233 0 514.943 5.5696 525.884 17.5452C536.951 29.4043 542.1 45.7726 542.1 65.8142V97.4466H494.189V63.3727Z" fill="url(#paint6_linear_0_31)"/>
<path id="Stroke_8" d="M362.986 9.30081V155.471H362.288L324.96 9.30081H276.816V253.502H311.004V75.2343H311.702L357.751 253.502H397.174V9.30081H362.986ZM402.988 259.317H353.248L316.818 118.274V259.317H271.002V3.48649H329.474L357.172 111.943V3.48649H402.988V259.317Z" fill="url(#paint7_linear_0_31)"/>
<path id="Stroke_9" d="M150.082 9.30081V253.502H254.74V218.616H188.454V143.609H241.135V108.723H188.454V44.1867H254.74V9.30081H150.082ZM260.554 50.001H194.269V102.909H246.95V149.424H194.269V212.802H260.554V259.317H144.268V3.48649H260.554V50.001Z" fill="url(#paint8_linear_0_31)"/>
<path id="Stroke_10" d="M50.5744 3.48649L70.9472 157.129L91.32 3.48649H138.414L99.6724 259.317H38.7356L0 3.48649H50.5744ZM6.75688 9.30081L43.738 253.502H94.6701L131.651 9.30081H96.4132L71.2992 198.732H70.6008L45.4812 9.30081H6.75688Z" fill="url(#paint9_linear_0_31)"/>
</g>
<defs>
<linearGradient id="paint0_linear_0_31" x1="1297.67" y1="0" x2="1297.67" y2="262.803" gradientUnits="userSpaceOnUse">
<stop stop-color="#FF4B1F"/>
<stop offset="1" stop-color="#FF9068"/>
</linearGradient>
<linearGradient id="paint1_linear_0_31" x1="1163.72" y1="3.48649" x2="1163.72" y2="259.317" gradientUnits="userSpaceOnUse">
<stop stop-color="#FF4B1F"/>
<stop offset="1" stop-color="#FF9068"/>
</linearGradient>
<linearGradient id="paint2_linear_0_31" x1="1028.08" y1="3.48649" x2="1028.08" y2="259.317" gradientUnits="userSpaceOnUse">
<stop stop-color="#FF4B1F"/>
<stop offset="1" stop-color="#FF9068"/>
</linearGradient>
<linearGradient id="paint3_linear_0_31" x1="883.169" y1="0" x2="883.169" y2="262.803" gradientUnits="userSpaceOnUse">
<stop stop-color="#FF4B1F"/>
<stop offset="1" stop-color="#FF9068"/>
</linearGradient>
<linearGradient id="paint4_linear_0_31" x1="743.887" y1="3.48649" x2="743.887" y2="259.317" gradientUnits="userSpaceOnUse">
<stop stop-color="#FF4B1F"/>
<stop offset="1" stop-color="#FF9068"/>
</linearGradient>
<linearGradient id="paint5_linear_0_31" x1="611.571" y1="3.48649" x2="611.571" y2="259.317" gradientUnits="userSpaceOnUse">
<stop stop-color="#FF4B1F"/>
<stop offset="1" stop-color="#FF9068"/>
</linearGradient>
<linearGradient id="paint6_linear_0_31" x1="479.769" y1="0" x2="479.769" y2="262.803" gradientUnits="userSpaceOnUse">
<stop stop-color="#FF4B1F"/>
<stop offset="1" stop-color="#FF9068"/>
</linearGradient>
<linearGradient id="paint7_linear_0_31" x1="336.995" y1="3.48649" x2="336.995" y2="259.317" gradientUnits="userSpaceOnUse">
<stop stop-color="#FF4B1F"/>
<stop offset="1" stop-color="#FF9068"/>
</linearGradient>
<linearGradient id="paint8_linear_0_31" x1="202.411" y1="3.48649" x2="202.411" y2="259.317" gradientUnits="userSpaceOnUse">
<stop stop-color="#FF4B1F"/>
<stop offset="1" stop-color="#FF9068"/>
</linearGradient>
<linearGradient id="paint9_linear_0_31" x1="69.2069" y1="3.48649" x2="69.2069" y2="259.317" gradientUnits="userSpaceOnUse">
<stop stop-color="#FF4B1F"/>
<stop offset="1" stop-color="#FF9068"/>
</linearGradient>
</defs>
</svg>
