<svg xmlns="http://www.w3.org/2000/svg" viewBox="0 0 1440 720" preserveAspectRatio="none">
  <defs>
    <radialGradient id="centerGlow" cx="50%" cy="48%" r="58%">
      <stop offset="0" stop-color="#7d21a8" stop-opacity=".9"/>
      <stop offset=".52" stop-color="#4e0b73" stop-opacity=".82"/>
      <stop offset="1" stop-color="#321a28"/>
    </radialGradient>
    <filter id="soft">
      <feGaussianBlur stdDeviation="12"/>
    </filter>
  </defs>
  <rect width="1440" height="720" fill="url(#centerGlow)"/>
  <g opacity=".42" filter="url(#soft)">
    <path d="M-50 502c204-82 358-84 500-5 142 78 266 88 430 13 214-98 372-84 610 34v214H-50z" fill="#25051e"/>
    <path d="M-88 160c216 96 400 96 552 0 196-124 354-108 524 20 130 98 286 116 520 28v-270H-88z" fill="#8b2ec0"/>
    <path d="M274 683c120-204 270-308 452-310 224-4 390-116 516-336l250 682z" fill="#5d1292"/>
  </g>
  <g opacity=".22" fill="none" stroke="#b86ae3" stroke-width="18">
    <path d="M16 406c184-120 348-120 492 0s302 114 474-18 332-142 480-30"/>
    <path d="M0 180c162 88 318 82 468-18s312-102 486-6 340 98 498 6"/>
  </g>
</svg>
